<?xml version="1.0" encoding="UTF-8" standalone="no"?>
<svg xmlns:svg="http://www.w3.org/2000/svg" xmlns="http://www.w3.org/2000/svg" version="1.0" width="99.212708" height="88.582672" id="svg2538">
  <path d="m 49.423478,47.128978 0,-4.555 c 1.74,0.02125 3.27625,0.1325 4.61125,0.295 -0.17,0.3475 -0.3175,0.715 -0.5075,1.03 -1.12875,1.85625 -2.57375,2.955 -4.10375,3.23 m -1.44875,-0.0087 c -1.51625,-0.28625 -2.94375,-1.38 -4.0625,-3.22125 -0.19,-0.315 -0.34625,-0.68125 -0.51375,-1.03 1.325,-0.1625 2.84875,-0.27125 4.57625,-0.295 l 0,4.54625 z m -4.1975,-0.98625 c -1.38375,-0.63625 -2.6225,-1.5175 -3.6575,-2.6075 0.01875,-0.0087 0.01375,-0.0087 0.03375,-0.01625 0.365,-0.15 1.00125,-0.30375 1.73625,-0.44 0.245,0.54875 0.4975,1.09375 0.79125,1.57875 0.33,0.5425 0.70375,1.03 1.09625,1.485 m 9.885,0 c 0.3925,-0.455 0.76625,-0.9425 1.095,-1.485 0.29375,-0.485 0.5475,-1.03 0.795,-1.57875 0.73375,0.13625 1.37125,0.29 1.735,0.44 0.0125,0.005 0.01,0.0012 0.02375,0.0075 -1.035,1.09375 -2.2625,1.97875 -3.64875,2.61625 m -14.46125,-3.73 c -1.3,-1.7575 -2.10125,-3.87875 -2.2675,-6.1925 l 3.4475,0 c 0.08,1.98625 0.42875,3.84 0.9925,5.5 -0.665,0.135 -1.30125,0.27 -1.76,0.45625 -0.15625,0.06375 -0.27875,0.15875 -0.4125,0.23625 m 19.0375,0 c -0.13375,-0.0775 -0.2575,-0.1725 -0.4125,-0.23625 -0.45375,-0.18625 -1.095,-0.32125 -1.76,-0.45625 0.565,-1.66 0.90625,-3.51375 0.985,-5.5 l 3.455,0 c -0.1675,2.31375 -0.96875,4.435 -2.2675,6.1925 m -15.42125,-0.9275 c -0.5575,-1.5575 -0.90375,-3.34 -0.9875,-5.265 l 6.145,0 0,4.91875 c -1.94875,0.0275 -3.68375,0.145 -5.1575,0.34625 m 11.7975,0 c -1.48375,-0.20125 -3.22875,-0.32125 -5.19125,-0.34625 l 0,-4.91875 6.1875,0 c -0.08375,1.925 -0.43625,3.7075 -0.99625,5.265 m -17.70625,-6.71625 c 0.11875,-2.33 0.875,-4.48375 2.14125,-6.27125 0.175,0.12125 0.35125,0.23375 0.56375,0.3225 0.43625,0.17875 1.05,0.30125 1.67875,0.43 -0.54375,1.6725 -0.8725,3.5325 -0.9275,5.51875 l -3.45625,0 z m 4.905,0 c 0.05875,-1.92125 0.38625,-3.70375 0.92,-5.27375 1.48875,0.205 3.26,0.335 5.24125,0.3625 l 0,4.91125 -6.16125,0 z m 7.61,0 0,-4.91125 c 2,-0.02625 3.785,-0.155 5.28375,-0.3625 0.5325,1.57 0.86,3.3525 0.91875,5.27375 l -6.2025,0 z m 7.645,0 c -0.05625,-1.98625 -0.3775,-3.84625 -0.92,-5.51875 0.625,-0.1275 1.2425,-0.2525 1.6775,-0.43 0.2125,-0.08625 0.38125,-0.2025 0.5575,-0.3225 1.2675,1.7875 2.02875,3.94125 2.14875,6.27125 l -3.46375,0 z m -9.09375,-6.36125 c -1.7825,-0.02625 -3.355,-0.13375 -4.7025,-0.305 0.20375,-0.44375 0.4025,-0.8925 0.64,-1.2825 1.11875,-1.8425 2.54625,-2.93625 4.0625,-3.2225 l 0,4.81 z m 1.44875,0 0,-4.81875 c 1.53,0.275 2.975,1.37375 4.10375,3.23125 0.23625,0.38875 0.42875,0.83875 0.6325,1.2825 -1.3575,0.17125 -2.94375,0.28 -4.73625,0.305 m -7.6425,-0.52375 c -0.66875,-0.13 -1.2875,-0.26625 -1.6275,-0.40625 -0.10125,-0.04125 -0.12375,-0.06625 -0.185,-0.1 1.0675,-1.17 2.35,-2.125 3.80875,-2.7925 -0.3925,0.4525 -0.76625,0.94125 -1.09625,1.48375 -0.34,0.55875 -0.6275,1.17375 -0.9,1.815 m 13.87875,0 c -0.27375,-0.64125 -0.56125,-1.25625 -0.9025,-1.815 -0.32875,-0.5425 -0.7025,-1.03125 -1.095,-1.48375 1.4575,0.6675 2.73375,1.6225 3.8025,2.7925 -0.06375,0.03375 -0.08125,0.06125 -0.1775,0.1 -0.34125,0.14 -0.96,0.27625 -1.6275,0.40625" id="path43" style="fill:#062747;fill-opacity:1;fill-rule:nonzero;stroke:none"/>
  <path d="m 48.720603,14.173228 c -8.93625,0 -16.50625,5.675 -19.5575,13.59625 l -5.24625,0 0,4.95875 6.9375,0 c 1.11375,0.01 2.09625,-0.7225 2.405,-1.79125 1.93,-6.79875 8.0975,-11.805 15.46125,-11.805 7.36375,0 13.54625,4.99 15.53375,11.805 0.3075,1.06 1.2775,1.79 2.37875,1.79125 l 6.89,0 0,-4.95875 -5.17,0 c -3.1,-7.92125 -10.69125,-13.59625 -19.6325,-13.59625 m -24.80375,23.8075 0,4.9575 5.22125,0 c 3.0475,7.9325 10.63875,13.62125 19.5825,13.62125 8.94625,0 16.535,-5.69375 19.6325,-13.62125 l 5.17,0 0,-4.9575 -6.89,0 c -1.10125,0 -2.07125,0.73125 -2.37875,1.79125 -1.9875,6.815 -8.17,11.83125 -15.53375,11.83125 -7.36375,0 -13.53125,-5.00875 -15.46125,-11.805 -0.29875,-1.08 -1.285,-1.82375 -2.405,-1.8175 l -6.9375,0 z" id="path47" style="fill:#a73e10;fill-opacity:1;fill-rule:nonzero;stroke:none"/>
  <path d="m 16.968228,62.423195 -2.795,0 0,11.98625 2.795,0 0,-11.98625 z m 19.63625,0 -5.54625,7.24625 -5.66,-7.24625 -2.2825,0 0,11.98625 2.2825,0 0,-7.41 -0.07125,-1.2775 c 0.14,0.3475 0.30375,0.6725 0.72375,1.23 l 4.52,6.01625 0.55875,0 4.52,-5.9925 c 0.1175,-0.13875 0.4675,-0.67375 0.69875,-1.25375 -0.0925,0.69625 -0.0925,1.09125 -0.0925,1.2775 l 0,7.41 2.5625,0 0,-11.98625 -2.21375,0 z m 10.90125,0 -2.79625,0 0,11.98625 2.79625,0 0,-11.98625 z m 8.05625,0 -1.91125,0 0,11.98625 2.515,0 0,-6.48 c 0,-0.23375 0,-0.3275 -0.02125,-0.62875 0,-0.0925 -0.025,-0.21 -0.025,-0.30125 -0.0225,-0.325 -0.04625,-0.65125 -0.06875,-0.97625 0.39625,0.465 0.93125,0.905 1.0025,0.97625 l 8.83125,7.41 1.91,0 0,-11.98625 -2.51625,0 0,6.295 0.11625,2.0675 c -1.02625,-1.09125 -0.98,-0.97625 -1.37625,-1.30125 l -8.45625,-7.06125 z m 23.95625,2.18375 5.52125,0 0,-2.18375 -13.84125,0 0,2.18375 5.5225,0 0,9.8025 2.7975,0 0,-9.8025 z" id="path49" style="fill:#062747;fill-opacity:1;fill-rule:nonzero;stroke:none"/>
</svg>